<?xml version="1.0" encoding="utf-8"?>
<svg xmlns="http://www.w3.org/2000/svg" fill="none" height="70" viewBox="0 0 201 70" width="175">
  <path d="m.337906 12c0-6.62742 5.372584-12 11.999994-12h176.0001c6.627 0 12 5.37258 12 12v45.1244c0 6.6274-5.373 12-12 12h-176.0001c-6.62741 0-11.999994-5.3726-11.999994-12z" fill="#fff"/>
  <g fill="#000">
    <path clip-rule="evenodd" d="m46.6619 33.8871c.0315-2.4727 1.3132-4.7568 3.396-6.052-1.3199-1.9067-3.4514-3.0723-5.7516-3.1451-2.4199-.2569-4.7659 1.4647-5.999 1.4647-1.257 0-3.1556-1.4392-5.2001-1.3966-2.69.0879-5.1371 1.5974-6.4458 3.9762-2.7871 4.8806-.7082 12.0536 1.9616 15.9987 1.3357 1.9319 2.8968 4.0898 4.9394 4.0133 1.9989-.0839 2.7454-1.2893 5.1582-1.2893 2.3904 0 3.0908 1.2893 5.1749 1.2406 2.1449-.0352 3.4962-1.9404 4.7851-3.8905.9597-1.3765 1.6982-2.8979 2.1882-4.5077-2.5475-1.0898-4.2039-3.6146-4.2069-6.4123z" fill-rule="evenodd"/>
    <path clip-rule="evenodd" d="m42.7256 22.0954c1.1694-1.42 1.7456-3.2452 1.6061-5.0879-1.7867.1898-3.4371 1.0535-4.6224 2.419-1.1704 1.3473-1.7633 3.1099-1.6481 4.8996 1.8106.0189 3.5298-.8033 4.6644-2.2307z" fill-rule="evenodd"/>
    <path d="m69.4138 23.3171v-7.2676h2.0751c.5707 0 1.0506.0831 1.4397.2492.3891.1574.7047.3936.9468.7084.2507.3061.428.6822.5317 1.1282.1124.4373.1686.9358.1686 1.4955 0 .5772-.0605 1.0714-.1816 1.4824-.1124.4023-.2594.739-.4409 1.0101-.1816.2711-.3891.4854-.6226.6428-.2248.1574-.4539.2799-.6874.3673-.2334.0787-.4539.1312-.6614.1575-.2075.0174-.3805.0262-.5188.0262zm-1.2321-8.3171v9.3666h3.1775c.7696 0 1.4353-.1094 1.9974-.328.562-.2186 1.0246-.5335 1.3877-.9445.3632-.4198.6312-.9314.8041-1.5349.173-.6122.2594-1.3118.2594-2.0989 0-1.5043-.3847-2.6237-1.1543-3.3584-.7695-.7346-1.8676-1.1019-3.2943-1.1019z"/>
    <path d="m78.1956 20.982c0-.411.0519-.774.1556-1.0888.1124-.3236.2637-.5947.4539-.8134.1903-.2186.4108-.3848.6615-.4985.2594-.1137.5318-.1705.8171-.1705s.5534.0568.8041.1705c.2594.1137.4842.2799.6744.4985.1902.2187.3372.4898.441.8134.1124.3148.1686.6778.1686 1.0888 0 .4111-.0562.7784-.1686 1.102-.1038.3148-.2508.5815-.441.8002-.1902.2099-.415.3717-.6744.4854-.2507.1137-.5188.1705-.8041.1705s-.5577-.0568-.8171-.1705c-.2507-.1137-.4712-.2755-.6615-.4854-.1902-.2187-.3415-.4854-.4539-.8002-.1037-.3236-.1556-.6909-.1556-1.102zm-1.1673 0c0 .4985.0692.962.2075 1.3906.1384.4285.3459.8046.6226 1.1282.2766.3148.6182.564 1.0246.7477.4063.1749.8733.2624 1.4007.2624.5361 0 1.003-.0875 1.4007-.2624.4064-.1837.7479-.4329 1.0246-.7477.2767-.3236.4842-.6997.6226-1.1282.1383-.4286.2075-.8921.2075-1.3906s-.0692-.962-.2075-1.3905c-.1384-.4373-.3459-.8134-.6226-1.1282-.2767-.3236-.6182-.5772-1.0246-.7609-.3977-.1837-.8646-.2755-1.4007-.2755-.5274 0-.9944.0918-1.4007.2755-.4064.1837-.748.4373-1.0246.7609-.2767.3148-.4842.6909-.6226 1.1282-.1383.4285-.2075.892-.2075 1.3905z"/>
    <path d="m91.7387 24.3666 2.14-6.7823h-1.1413l-1.5045 5.5491h-.0259l-1.4007-5.5491h-1.2062l-1.3489 5.5491h-.0259l-1.5175-5.5491h-1.2191l2.153 6.7823h1.1932l1.3488-5.3917h.026l1.3618 5.3917z"/>
    <path d="m95.1862 17.5843v6.7823h1.1025v-3.8306c0-.3061.0389-.586.1167-.8396.0865-.2624.2118-.4898.3761-.6822s.3675-.341.6096-.446c.2507-.1049.5447-.1574.8819-.1574.4237 0 .7566.1224.9987.3673s.3631.5772.3631.997v4.5915h1.1022v-4.4603c0-.3673-.039-.6997-.116-.997-.07-.3061-.195-.5685-.377-.7871-.181-.2187-.4189-.3892-.7129-.5116-.294-.1225-.6615-.1837-1.1024-.1837-.9944 0-1.7207.4111-2.1789 1.2331h-.026v-1.0757z"/>
    <path d="m102.717 15v9.3666h1.103v-9.3666z"/>
    <path d="m106.591 20.982c0-.411.052-.774.156-1.0888.112-.3236.263-.5947.454-.8134.19-.2186.41-.3848.661-.4985.259-.1137.532-.1705.817-.1705s.554.0568.804.1705c.26.1137.484.2799.675.4985.19.2187.337.4898.441.8134.112.3148.168.6778.168 1.0888 0 .4111-.056.7784-.168 1.102-.104.3148-.251.5815-.441.8002-.191.2099-.415.3717-.675.4854-.25.1137-.519.1705-.804.1705s-.558-.0568-.817-.1705c-.251-.1137-.471-.2755-.661-.4854-.191-.2187-.342-.4854-.454-.8002-.104-.3236-.156-.6909-.156-1.102zm-1.167 0c0 .4985.069.962.207 1.3906.139.4285.346.8046.623 1.1282.277.3148.618.564 1.024.7477.407.1749.874.2624 1.401.2624.536 0 1.003-.0875 1.401-.2624.406-.1837.748-.4329 1.024-.7477.277-.3236.485-.6997.623-1.1282.138-.4286.208-.8921.208-1.3906s-.07-.962-.208-1.3905c-.138-.4373-.346-.8134-.623-1.1282-.276-.3236-.618-.5772-1.024-.7609-.398-.1837-.865-.2755-1.401-.2755-.527 0-.994.0918-1.401.2755-.406.1837-.747.4373-1.024.7609-.277.3148-.484.6909-.623 1.1282-.138.4285-.207.892-.207 1.3905z"/>
    <path d="m119.434 24.3403c-.19.1137-.454.1706-.791.1706-.286 0-.515-.0787-.688-.2362-.164-.1661-.246-.4329-.246-.8002-.303.3673-.657.6341-1.064.8002-.397.1575-.83.2362-1.297.2362-.302 0-.592-.035-.869-.105-.268-.0699-.501-.1793-.7-.3279-.199-.1487-.359-.3411-.48-.5772-.112-.2449-.168-.5379-.168-.879 0-.3848.064-.6996.194-.9445s.298-.4417.506-.5903c.216-.1575.458-.2755.726-.3542.277-.0787.558-.1443.843-.1968.303-.0612.588-.105.856-.1312.277-.035.519-.0787.727-.1312.207-.0612.371-.1443.492-.2492.121-.1137.182-.2755.182-.4854 0-.2449-.048-.4417-.143-.5903-.086-.1487-.203-.2624-.35-.3411-.138-.0787-.298-.1312-.48-.1574-.173-.0263-.346-.0394-.519-.0394-.466 0-.855.0918-1.167.2755-.311.1749-.48.5116-.506 1.0101h-1.102c.017-.4198.104-.774.259-1.0626.156-.2886.364-.5204.623-.6953.259-.1836.553-.3148.882-.3935.337-.0787.696-.1181 1.076-.1181.303 0 .601.0219.895.0656.303.0437.575.1356.817.2755.242.1312.437.3192.584.5641s.22.5641.22.9576v3.4895c0 .2624.013.4548.039.5773.035.1224.139.1836.312.1836.095 0 .207-.0219.337-.0656zm-1.79-3.4764c-.138.105-.32.1837-.545.2362-.224.0437-.462.0831-.713.118-.242.0263-.489.0613-.739.105-.251.035-.476.0962-.675.1836-.199.0875-.363.2143-.493.3805-.121.1574-.181.376-.181.6559 0 .1837.034.3411.104.4723.077.1224.173.223.285.3017.121.0787.259.1356.415.1705.156.035.32.0525.493.0525.363 0 .674-.0481.934-.1443.259-.1049.471-.2318.635-.3804.164-.1575.285-.3236.363-.4985.078-.1837.117-.3542.117-.5116z"/>
    <path d="m121.523 21.0345c0-.3323.035-.6559.104-.9708.069-.3148.182-.5947.337-.8396.156-.2448.364-.4416.623-.5903s.575-.223.947-.223c.38 0 .704.0743.972.223.268.1399.485.328.649.5641.173.2361.298.5116.376.8265.078.3061.117.6253.117.9576 0 .3149-.039.6253-.117.9314-.069.3061-.186.5816-.35.8265-.164.2361-.376.4285-.636.5772-.259.1487-.575.223-.946.223-.355 0-.666-.07-.934-.2099-.26-.1399-.476-.3279-.649-.5641-.164-.2361-.289-.5029-.376-.8002-.078-.3061-.117-.6166-.117-.9314zm5.188 3.3321v-9.3666h-1.102v3.4895h-.026c-.121-.2011-.272-.3673-.454-.4985-.173-.1399-.359-.2492-.558-.328-.199-.0874-.397-.1486-.596-.1836s-.385-.0525-.558-.0525c-.51 0-.96.0962-1.349.2886-.38.1837-.7.4373-.96.7609-.25.3148-.441.6865-.57 1.1151-.121.4285-.182.8833-.182 1.3643s.065.9358.195 1.3643c.129.4285.32.8046.57 1.1282.26.3236.58.5816.96.774.389.1924.843.2886 1.362.2886.467 0 .895-.0831 1.284-.2493.389-.1661.674-.4373.856-.8133h.026v.9183z"/>
    <path d="m133.34 20.982c0-.411.052-.774.156-1.0888.112-.3236.263-.5947.454-.8134.19-.2186.41-.3848.661-.4985.259-.1137.532-.1705.817-.1705s.553.0568.804.1705c.26.1137.484.2799.675.4985.19.2187.337.4898.441.8134.112.3148.168.6778.168 1.0888 0 .4111-.056.7784-.168 1.102-.104.3148-.251.5815-.441.8002-.191.2099-.415.3717-.675.4854-.251.1137-.519.1705-.804.1705s-.558-.0568-.817-.1705c-.251-.1137-.471-.2755-.661-.4854-.191-.2187-.342-.4854-.454-.8002-.104-.3236-.156-.6909-.156-1.102zm-1.167 0c0 .4985.069.962.207 1.3906.139.4285.346.8046.623 1.1282.276.3148.618.564 1.024.7477.407.1749.874.2624 1.401.2624.536 0 1.003-.0875 1.401-.2624.406-.1837.748-.4329 1.024-.7477.277-.3236.485-.6997.623-1.1282.138-.4286.207-.8921.207-1.3906s-.069-.962-.207-1.3905c-.138-.4373-.346-.8134-.623-1.1282-.276-.3236-.618-.5772-1.024-.7609-.398-.1837-.865-.2755-1.401-.2755-.527 0-.994.0918-1.401.2755-.406.1837-.748.4373-1.024.7609-.277.3148-.484.6909-.623 1.1282-.138.4285-.207.892-.207 1.3905z"/>
    <path d="m140.243 17.5843v6.7823h1.102v-3.8306c0-.3061.039-.586.117-.8396.086-.2624.212-.4898.376-.6822s.367-.341.61-.446c.25-.1049.544-.1574.881-.1574.424 0 .757.1224.999.3673s.363.5772.363.997v4.5915h1.103v-4.4603c0-.3673-.039-.6997-.117-.997-.069-.3061-.195-.5685-.376-.7871-.182-.2187-.42-.3892-.713-.5116-.294-.1225-.662-.1837-1.103-.1837-.994 0-1.721.4111-2.179 1.2331h-.026v-1.0757z"/>
    <path d="m153.108 17.5843v-2.0333h-1.102v2.0333h-1.141v.9839h1.141v4.316c0 .3148.03.5685.091.7609.06.1924.151.341.272.446.13.1049.294.1793.493.223.207.035.454.0525.739.0525h.843v-.9839h-.506c-.172 0-.315-.0044-.428-.0131-.103-.0175-.185-.0481-.246-.0919-.06-.0437-.104-.1049-.13-.1836-.017-.0787-.026-.1837-.026-.3149v-4.211h1.336v-.9839z"/>
    <path d="m155.928 15v9.3666h1.103v-3.8306c0-.3061.039-.586.117-.8396.086-.2624.211-.4898.376-.6822.164-.1924.367-.341.609-.446.251-.1049.545-.1574.882-.1574.424 0 .757.1224.999.3673s.363.5772.363.997v4.5915h1.102v-4.4603c0-.3673-.039-.6997-.116-.997-.069-.3061-.195-.5685-.376-.7871-.182-.2187-.42-.3892-.714-.5116-.294-.1225-.661-.1837-1.102-.1837-.199 0-.407.0219-.623.0656-.207.0437-.41.1137-.609.2099-.191.0875-.363.2055-.519.3542-.156.1399-.277.3148-.363.5247h-.026v-3.5813z"/>
    <path d="m168.051 20.3261h-3.852c.017-.2624.073-.5073.168-.7346.095-.2362.225-.4417.389-.6166.165-.1749.359-.3105.584-.4067.233-.1049.493-.1574.778-.1574.277 0 .528.0525.752.1574.234.0962.433.2318.597.4067.173.1662.307.3673.402.6034.104.2362.164.4854.182.7478zm1.063 1.889h-1.089c-.095.4461-.294.7784-.597.997-.294.2187-.674.328-1.141.328-.363 0-.679-.0612-.947-.1836-.268-.1225-.489-.2843-.661-.4854-.173-.2099-.299-.4461-.377-.7084-.077-.2711-.112-.5554-.103-.8527h5.019c.017-.4111-.022-.844-.117-1.2988-.086-.4547-.251-.8745-.493-1.2593-.233-.3848-.549-.6997-.946-.9446-.39-.2536-.882-.3804-1.479-.3804-.458 0-.882.0875-1.271.2624-.38.1749-.713.4198-.999.7346-.276.3149-.492.6865-.648 1.1151-.156.4285-.234.9008-.234 1.4168.018.516.091.9926.221 1.4299.138.4373.341.8133.609 1.1282.269.3148.597.5597.986.7346.398.1749.865.2624 1.401.2624.761 0 1.392-.1924 1.893-.5772.502-.3848.826-.9577.973-1.7186z"/>
    <path d="m91.5529 35.9223c3.3113 0 5.4941 2.6476 5.4941 6.7371 0 4.101-2.1701 6.7357-5.4449 6.7357-1.6927.0896-3.2871-.8072-4.105-2.3088h-.062v6.5365h-2.6781v-17.5625h2.5923v2.195h.0493c.8542-1.4922 2.4504-2.3886 4.1543-2.333zm14.3601 0c3.311 0 5.494 2.6476 5.494 6.7371 0 4.101-2.17 6.7357-5.445 6.7357-1.692.0896-3.287-.8072-4.105-2.3088h-.062v6.5365h-2.6779v-17.5625h2.5919v2.195h.05c.854-1.4922 2.45-2.3886 4.154-2.333zm19.227-5.0676c3.781 0 6.373 2.1452 6.46 5.2682h-2.703c-.162-1.8064-1.638-2.8967-3.796-2.8967-2.157 0-3.633 1.1032-3.633 2.7088 0 1.2797.943 2.0327 3.249 2.6091l1.972.4897c3.672.8783 5.197 2.3701 5.197 5.0176 0 3.3864-2.667 5.5073-6.908 5.5073-3.969 0-6.648-2.0711-6.822-5.345l2.742.0001c.198 1.795 1.922 2.9735 4.278 2.9735 2.257 0 3.881-1.1786 3.881-2.797 0-1.405-.979-2.2462-3.298-2.8227l-2.319-.5651c-3.287-.8029-4.812-2.3573-4.812-4.8796 0-3.123 2.691-5.2682 6.512-5.2682zm22.632 5.0434c3.783 0 6.189 2.6091 6.189 6.7613 0 4.1636-2.394 6.7614-6.189 6.7614-3.794 0-6.188-2.5978-6.188-6.7614 0-4.1522 2.418-6.7613 6.188-6.7613zm21.686 0c3.61 0 5.88 2.5081 5.88 6.5094v.928h-9.215v.1637c-.086.9825.249 1.955.921 2.6702.671.7152 1.614 1.1041 2.589 1.0678 1.299.1232 2.525-.6317 3.013-1.8562h2.543c-.361 2.3957-2.667 4.0398-5.618 4.0398-3.796 0-6.152-2.5722-6.152-6.6988 0-4.1393 2.369-6.8239 6.039-6.8239zm-31.792-2.9608v3.123h2.481v2.1452h-2.481v7.2752c0 1.1302.497 1.6569 1.587 1.6569.295-.0052.589-.0262.881-.0627v2.1323c-.49.0927-.988.1347-1.487.1253-2.642 0-3.672-1.0036-3.672-3.5629v-7.5641h-1.897v-2.1452h1.897v-3.123zm-61.0333-1.7808 6.4609 18.1006h-2.9384l-1.6367-4.8924h-6.8212l-1.6381 4.8924h-2.8892l6.4609-18.1006zm85.2913 4.7657c.308-.001.616.0329.917.1011v2.5337c-.39-.1204-.796-.1757-1.203-.1637-.788-.0323-1.549.2851-2.086.8688-.537.5838-.794 1.3755-.705 2.1674v7.8276h-2.678v-13.1968h2.554v2.2462h.062c.356-1.446 1.666-2.4411 3.139-2.3843zm-14.152 2.2078c-2.17 0-3.459 1.6939-3.459 4.5294 0 2.8597 1.289 4.528 3.459 4.528s3.46-1.6683 3.46-4.528c0-2.8483-1.29-4.5294-3.46-4.5294zm-56.9256.1011c-2.0462 0-3.4225 1.7935-3.4225 4.4283 0 2.659 1.3763 4.4397 3.4225 4.4397 2.0828 0 3.4479-1.7437 3.4479-4.4397 0-2.6718-1.3651-4.4283-3.4479-4.4283zm14.3606 0c-2.047 0-3.423 1.7935-3.423 4.4283 0 2.659 1.376 4.4397 3.423 4.4397 2.082 0 3.447-1.7437 3.447-4.4397 0-2.6718-1.365-4.4283-3.447-4.4283zm-30.0617-4.0639h-.0746l-2.6669 7.9399h5.4069zm94.3127 3.9258c-.881-.0053-1.727.3455-2.351.9745-.624.6289-.974 1.4839-.971 2.3749h6.522c.049-.8829-.269-1.7462-.876-2.3819-.608-.6358-1.45-.9865-2.324-.9675z"/>
  </g>
</svg>