<?xml version="1.0" encoding="UTF-8"?>
<svg id="katman_2" data-name="katman 2" xmlns="http://www.w3.org/2000/svg" xmlns:xlink="http://www.w3.org/1999/xlink" viewBox="0 0 3271.16 795.1">
  <defs>
    <style>
      .cls-1 {
        filter: url(#drop-shadow-1);
      }

      .cls-2 {
        fill: #4a7f6a;
      }

      .cls-2, .cls-3 {
        stroke-width: 0px;
      }

      .cls-3 {
        fill: #fff;
      }
    </style>
    <filter id="drop-shadow-1" filterUnits="userSpaceOnUse">
      <feOffset dx="0" dy="0"/>
      <feGaussianBlur result="blur" stdDeviation="144"/>
      <feFlood flood-color="#1d1d1b" flood-opacity=".5"/>
      <feComposite in2="blur" operator="in"/>
      <feComposite in="SourceGraphic"/>
    </filter>
  </defs>
  <g id="katman_2-2" data-name="katman 2">
    <g class="cls-1">
      <path class="cls-2" d="M597.22,263.4c0-25.53.27-50.51-.06-75.48-.58-44.01-20.23-77.03-58.3-99.02-41.47-23.96-83.03-47.77-124.55-71.66C392.68,4.78,369.45-1.19,344.45.2c-27.25,1.51-52.15,9.62-73.66,26.85-4.67,3.74-8.94,7.96-13.4,11.96-2.41,2.16-2.16,3.84.9,5.01,2.73,1.04,5.59,1.81,8.16,3.15,13.54,7.1,27.94,12.26,41.7,18.93,16.32,7.92,32.91,15.36,49.34,23.09,17.31,8.15,34.13,17.27,51.02,26.25,21.18,11.26,41.56,23.84,61.81,36.6,21.99,13.86,42.67,29.63,62.28,46.7,20.33,17.69,40.15,35.93,56.91,57.23,2,2.54,3.76,5.75,7.71,7.42ZM357.63,664.31c1.22.96,1.69,1.43,2.24,1.75,14.83,8.75,29.67,17.48,44.51,26.21,12.31,7.24,24.5,14.56,38.04,19.57,15.11,5.59,30.68,7.85,46.38,6.29,18.1-1.8,35.2-7.85,50.99-17.19,18.84-11.15,37.64-22.37,56.64-33.23,20.76-11.87,41.75-23.34,62.62-35.03,22.35-12.53,41.3-28.57,53.03-51.93,12.16-24.22,13.49-50.19,11.76-76.5-.52-7.89-.87-15.94-3.47-24.56-5.65,4.94-11.15,9-16.75,12.94-47.14,33.17-93.59,67.33-144.12,95.44-19.87,11.05-39.72,22.12-60.27,31.82-39.2,18.5-80.03,32.27-122.6,40.72-6.1,1.21-12.2,2.38-19.01,3.7Z"/>
      <path class="cls-3" d="M299.39,777.29c-18.59-10.67-37.27-21.18-55.74-32.04-21.07-12.4-42.37-24.46-60.5-41.26-19.21-17.8-34-38.8-43.19-63.1-7.36-19.45-10.62-40.07-11.03-61.06-.77-39.79-.99-79.58-.94-119.38.01-8.99.13-17.97.2-26.96.77-21.37.2-42.79,2.38-64.1,2.55-24.94,8.4-49.12,18.93-71.89,18.27-39.47,46.84-70.28,82.31-94.88,10.33-7.16,21.31-13.38,31.96-20.08,1.75-1.1,4.29-1.8,4.05-4.52-.24-2.72-2.95-2.85-4.8-3.7-23.18-10.61-45.88-7.93-68.1,2.89-14.01,6.83-27.13,15.3-40.57,23.15-46.63,27.21-93.54,53.93-139.7,81.93-.75.32-1.54.57-2.25.96-7.65,4.23-7.5,4.2-9.63-4.16-1.87-7.36-2.3-14.85-2.79-22.36.37-9.99-.1-20.06,2.56-29.85,7.53-27.7,21.44-51.36,45.6-67.55,36.39-24.39,74.71-45.56,114.02-64.84,24.6-12.07,51.03-17.23,78.46-15.87,27.59,1.37,53.68,8.82,77.71,22.33,53.97,30.34,107.18,61.99,160.28,93.81,31.04,18.6,57.24,42.81,77.42,73.18,17.71,26.65,28.66,55.98,33.9,87.37,3,17.98,4.38,36.19,3.46,54.5-.17,3.43-1.23,8.37,1.45,9.84,2.45,1.35,6.44-1.68,9.34-3.57,17.83-11.59,26.99-27.91,28.21-49.31,1.88-33.08.6-66.14.38-99.2-.27-39.62-1.27-79.23-1.88-118.85-.15-9.67.06-9.91,9-7.07,44.36,14.05,79.48,51.44,82.37,101.9,2.11,36.93,1.34,73.93.59,110.89-.54,26.74-5.35,52.74-16.98,77.12-14.71,30.84-37.61,54.2-66.46,71.98-28.03,17.29-56.26,34.26-84.82,50.66-31.39,18.02-62.77,36.08-95.3,51.97-30.27,14.79-62.44,22.57-96.15,22.97-25.15.3-49.55-4.42-73.55-12.03-19.52-6.19-37.28-15.73-54.84-25.89-2.88-1.66-5.77-3.3-8.58-5.08-2.04-1.29-4.46-1.39-6.18-.4-1.71.99-.53,3.35-.27,5.08,4.81,31.13,23.65,51.66,50.1,66.57,31.6,17.82,63.1,35.83,94.66,53.71,24.26,13.75,48.56,27.44,72.84,41.16,1.88,1.06,3.64,2.38,5.6,3.26,4.31,1.94,4.4,3.54.69,6.79-22.96,20.1-49.2,32.27-80,32.76-21.02.33-40.78-5.29-59.26-15.32-1.17-.63-2.37-1.21-3.55-1.81,0,0-.07.06-.07.06-.45-.24-.91-.48-1.36-.73ZM272.53,508.45c31.21,24.73,66.68,34.97,106.13,30.13,43.84-5.38,77.72-27.96,102.25-63.83,22.15-32.38,28.71-68.96,20.97-107.28-20.63-102.2-135.68-146.89-219.18-91.91-34.13,22.47-54.68,54.43-62.37,94.56-2.92,15.23-3.06,30.58-.97,45.94,2.29,16.86,7.39,32.8,15.87,47.6,8.89,17.88,21.44,32.71,37.3,44.79Z"/>
      <path class="cls-3" d="M597.22,263.4c-3.95-1.67-5.71-4.88-7.71-7.42-16.76-21.3-36.58-39.54-56.91-57.23-19.61-17.07-40.29-32.84-62.28-46.7-20.25-12.76-40.63-25.35-61.81-36.6-16.9-8.98-33.72-18.1-51.02-26.25-16.43-7.74-33.02-15.18-49.34-23.09-13.76-6.67-28.16-11.84-41.7-18.93-2.57-1.34-5.43-2.11-8.16-3.15-3.06-1.17-3.31-2.85-.9-5.01,4.46-4,8.74-8.22,13.4-11.96C292.3,9.81,317.2,1.71,344.45.2c24.99-1.39,48.23,4.58,69.87,17.04,41.52,23.89,83.08,47.7,124.55,71.66,38.06,21.99,57.72,55.01,58.3,99.02.33,24.97.06,49.95.06,75.48Z"/>
      <path class="cls-3" d="M357.63,664.31c6.81-1.33,12.91-2.49,19.01-3.7,42.57-8.45,83.4-22.22,122.6-40.72,20.55-9.7,40.4-20.77,60.27-31.82,50.53-28.1,96.98-62.27,144.12-95.44,5.6-3.94,11.11-8,16.75-12.94,2.6,8.62,2.95,16.67,3.47,24.56,1.73,26.31.4,52.28-11.76,76.5-11.73,23.37-30.68,39.4-53.03,51.93-20.86,11.69-41.86,23.16-62.62,35.03-19,10.86-37.8,22.09-56.64,33.23-15.79,9.35-32.89,15.4-50.99,17.19-15.71,1.56-31.28-.7-46.38-6.29-13.54-5.01-25.73-12.33-38.04-19.57-14.84-8.73-29.68-17.47-44.51-26.21-.55-.32-1.02-.79-2.24-1.75Z"/>
      <path class="cls-3" d="M96.38,435.47c-1.8,24.43-1.09,48.86-.18,73.3,1.46,39.08,4.96,78,8.92,116.89,1.34,13.14,2.54,26.3,3.89,40.3-9.2-4.51-17.97-8.15-26.08-12.9-16.16-9.46-32.51-18.7-45.92-32.18-18.15-18.24-25.42-40.58-26.7-65.81-1.96-38.58-2.41-77.16-1.69-115.77.11-5.81,1.02-11.6.43-17.42.76-16.46,1.47-32.91,2.34-49.36.2-3.73.61-7.53,1.59-11.11,5.51-20.03,16.69-36.64,31.73-50.67,21.08-19.67,46.96-32.14,71.27-46.96,4.9-2.7,9.8-5.39,15.27-8.4-2.09,6.28-3.9,11.73-5.72,17.18-.38.72-.87,1.41-1.11,2.17-11.5,35.72-19.88,72.12-24.18,109.45-1.96,17.06-3.86,34.11-3.87,51.3Z"/>
      <path class="cls-2" d="M299.39,777.29c.45.24.9.48,1.36.73-.65.13-1.43.5-1.36-.73Z"/>
    </g>
    <g>
      <path class="cls-3" d="M1153.85,606.97c-63.31,0-115.8-20.93-157.46-62.8-41.68-41.86-62.5-93.65-62.5-155.36s20.83-113.49,62.5-155.36c41.67-41.86,94.15-62.8,157.46-62.8,38.06,0,73.22,9.01,105.48,27.04,32.25,18.03,57.4,42.47,75.43,73.32l-60.1,34.86c-11.22-20.83-27.55-37.36-48.98-49.58-21.44-12.22-45.38-18.33-71.82-18.33-44.88,0-81.24,14.23-109.08,42.67-27.85,28.45-41.77,64.51-41.77,108.18s13.92,79.74,41.77,108.18c27.84,28.45,64.2,42.67,109.08,42.67,26.44,0,50.48-6.1,72.12-18.33,21.64-12.22,37.86-28.75,48.68-49.58l60.1,34.26c-17.64,30.86-42.58,55.4-74.82,73.62-32.26,18.24-67.61,27.35-106.08,27.35Z"/>
      <path class="cls-3" d="M1548.7,290.84c34.45,0,62.3,11.02,83.54,33.05,21.23,22.04,31.85,52.29,31.85,90.75v184.51h-64.91v-177.9c0-22.43-6.01-39.67-18.03-51.69-12.02-12.02-28.45-18.03-49.28-18.03-22.84,0-41.27,7.12-55.29,21.34-14.03,14.23-21.04,35.97-21.04,65.21v161.07h-64.91V178.45h64.91v158.66c19.63-30.85,50.68-46.28,93.15-46.28Z"/>
      <path class="cls-3" d="M1971.8,298.65h64.91v300.5h-64.91v-43.27c-24.44,34.06-59.5,51.09-105.17,51.09-41.27,0-76.53-15.33-105.78-45.98-29.25-30.65-43.87-68.01-43.87-112.09s14.62-81.93,43.87-112.39c29.24-30.44,64.5-45.68,105.78-45.68,45.68,0,80.73,16.83,105.17,50.48v-42.67ZM1808.93,517.72c18.03,18.24,40.66,27.35,67.91,27.35s49.88-9.11,67.91-27.35c18.03-18.23,27.04-41.17,27.04-68.81s-9.02-50.58-27.04-68.81c-18.03-18.23-40.67-27.35-67.91-27.35s-49.88,9.12-67.91,27.35c-18.03,18.24-27.04,41.17-27.04,68.81s9.02,50.59,27.04,68.81Z"/>
      <path class="cls-3" d="M2280.11,361.16h-74.52v144.24c0,12.42,2.8,21.33,8.41,26.74,5.61,5.41,13.92,8.41,24.94,9.02,11.02.6,24.73.51,41.17-.3v58.3c-49.69,6.01-85.34,1.7-106.98-12.92s-32.45-41.56-32.45-80.83v-144.24h-55.29v-62.5h55.29v-64.91l64.91-19.23v84.14h74.52v62.5Z"/>
      <path class="cls-3" d="M2620.27,599.15l-29.45-84.74h-179.1l-29.45,84.74h-75.12l152.65-420.7h82.94l152.05,420.7h-74.52ZM2434.56,449.5h133.42l-66.71-189.92-66.71,189.92Z"/>
      <path class="cls-3" d="M2790.36,381.59c0,10.02,5.5,17.94,16.53,23.74,11.02,5.81,24.43,10.82,40.27,15.02,15.82,4.21,31.75,9.12,47.78,14.72,16.02,5.62,29.54,15.13,40.57,28.55,11.02,13.43,16.53,30.35,16.53,50.78,0,28.85-11.12,51.49-33.36,67.91-22.24,16.43-50.18,24.64-83.84,24.64-29.66,0-55.09-6.22-76.33-18.63-21.24-12.41-36.66-29.65-46.28-51.69l55.89-32.45c10.41,28.85,32.65,43.27,66.71,43.27s51.08-11.21,51.08-33.66c0-9.62-5.51-17.43-16.53-23.44-11.02-6.01-24.44-11.12-40.27-15.33-15.83-4.21-31.76-9.11-47.78-14.72-16.03-5.61-29.55-14.92-40.57-27.95-11.02-13.02-16.53-29.54-16.53-49.58,0-27.65,10.52-49.88,31.55-66.71,21.04-16.83,47.18-25.24,78.43-25.24,24.84,0,46.97,5.51,66.41,16.53,19.43,11.02,34.35,26.35,44.77,45.98l-54.69,30.65c-10.42-22.84-29.25-34.26-56.49-34.26-12.42,0-22.84,2.71-31.25,8.11-8.41,5.41-12.62,13.33-12.62,23.74Z"/>
      <path class="cls-3" d="M3271.16,599.15h-77.53l-123.21-138.83v138.83h-64.91V178.45h64.91v253.02l116.59-132.82h79.33l-132.22,147.25,137.03,153.25Z"/>
    </g>
  </g>
</svg>