<?xml version="1.0" encoding="utf-8"?>
<svg xmlns="http://www.w3.org/2000/svg" xmlns:xlink="http://www.w3.org/1999/xlink" fill="none" height="71" viewBox="0 0 201 71" width="175">
  <filter id="a" color-interpolation-filters="sRGB" filterUnits="userSpaceOnUse" height="160.698" width="290" x="-44.6621" y="-45">
    <feFlood flood-opacity="0" result="BackgroundImageFix"/>
    <feGaussianBlur in="BackgroundImageFix" stdDeviation="22.5"/>
    <feComposite in2="SourceAlpha" operator="in" result="effect1_backgroundBlur_0_1404"/>
    <feBlend in="SourceGraphic" in2="effect1_backgroundBlur_0_1404" mode="normal" result="shape"/>
  </filter>
  <mask id="b" height="12" maskUnits="userSpaceOnUse" width="14" x="42" y="28">
    <path d="m47.7229 39.7982-5.4371-5.4409v-.3849l5.4397-5.4397 6.5666 3.7301c1.84 1.0466 1.84 2.7574 0 3.8027l-6.444 3.6616z" fill="#fff"/>
  </mask>
  <mask id="c" height="18" maskUnits="userSpaceOnUse" width="23" x="25" y="34">
    <path d="m47.8481 39.727-5.5623-5.5622-16.4139 16.4139c.6077.6419 1.6094.721 2.7377.0804z" fill="#fff"/>
  </mask>
  <mask id="d" height="18" maskUnits="userSpaceOnUse" width="23" x="25" y="17">
    <path d="m47.8481 28.6025-19.2385-10.932c-1.1283-.6406-2.13-.5615-2.7377.0804l16.4139 16.4139z" fill="#fff"/>
  </mask>
  <g filter="url(#a)">
    <path d="m.337891 12c0-6.62742 5.372579-12 12.000009-12h176.0001c6.627 0 12 5.37258 12 12v46.6977c0 6.6274-5.373 12-12 12h-176.0001c-6.62743 0-12.000009-5.3726-12.000009-12z" fill="#fff" fill-opacity=".1"/>
  </g>
  <path clip-rule="evenodd" d="m25.8719 17.7509c-.3836.406-.609 1.0347-.609 1.8506v29.1266c0 .8159.2254 1.4446.609 1.8506l.0975.0949 16.3164-16.3164v-.3848l-16.3164-16.3164z" fill="#fff" fill-rule="evenodd"/>
  <g mask="url(#b)">
    <path clip-rule="evenodd" d="m47.7229 39.7982-5.4371-5.4409v-.3849l5.4397-5.4397 6.5666 3.7301c1.84 1.0466 1.84 2.7574 0 3.8027l-6.444 3.6616z" fill="#c7c7c7" fill-rule="evenodd"/>
  </g>
  <g mask="url(#c)">
    <path clip-rule="evenodd" d="m47.8481 39.727-5.5623-5.5622-16.4139 16.4139c.6077.6419 1.6094.721 2.7377.0804z" fill="#e7e7e7" fill-rule="evenodd"/>
  </g>
  <g mask="url(#d)">
    <path clip-rule="evenodd" d="m47.8481 28.6025-19.2385-10.932c-1.1283-.6406-2.13-.5615-2.7377.0804l16.4139 16.4139z" fill="#e7e7e7" fill-rule="evenodd"/>
  </g>
  <g fill="#fff">
    <path clip-rule="evenodd" d="m150.525 48.6016h2.459v-16.4772h-2.459zm22.153-10.5419-2.82 7.1439h-.084l-2.926-7.1439h-2.65l4.388 9.9843-2.501 5.5544h2.566l6.762-15.5387zm-13.948 8.6702c-.807 0-1.93-.402-1.93-1.3985 0-1.2719 1.4-1.7596 2.607-1.7596 1.082 0 1.59.2333 2.248.551-.191 1.5263-1.506 2.6071-2.925 2.6071zm.296-9.0301c-1.78 0-3.624.7843-4.387 2.5228l2.182.9108c.467-.9108 1.335-1.2087 2.248-1.2087 1.272 0 2.565.7632 2.586 2.1208v.1687c-.446-.2544-1.399-.6353-2.565-.6353-2.353 0-4.749 1.293-4.749 3.7091 0 2.2051 1.929 3.626 4.091 3.626 1.654 0 2.565-.7421 3.138-1.612h.085v1.2719h2.373v-6.3162c0-2.9261-2.182-4.5579-5.002-4.5579zm-15.2 2.366h-3.498v-5.648h3.498c1.839 0 2.883 1.5224 2.883 2.8233 0 1.2773-1.044 2.8247-2.883 2.8247zm-.063-7.9414h-5.893v16.4772h2.458v-6.2424h3.435c2.726 0 5.406-1.9745 5.406-5.1181 0-3.1435-2.68-5.1167-5.406-5.1167zm-32.136 14.6082c-1.699 0-3.121-1.4222-3.121-3.3756 0-1.9745 1.422-3.4191 3.121-3.4191 1.678 0 2.994 1.4446 2.994 3.4191 0 1.9534-1.316 3.3756-2.994 3.3756zm2.824-7.7503h-.085c-.552-.6577-1.613-1.2521-2.951-1.2521-2.803 0-5.372 2.4621-5.372 5.6268 0 3.1423 2.569 5.5846 5.372 5.5846 1.338 0 2.399-.5944 2.951-1.2745h.085v.8066c0 2.1458-1.146 3.2926-2.994 3.2926-1.508 0-2.442-1.0835-2.824-1.9969l-2.145.8923c.616 1.4868 2.251 3.3123 4.969 3.3123 2.888 0 5.331-1.699 5.331-5.839v-10.0661h-2.337zm4.036 9.6193h2.463v-16.4785h-2.463zm6.093-5.4357c-.063-2.1656 1.678-3.2702 2.93-3.2702.978 0 1.806.4877 2.081 1.1889zm7.645-1.8691c-.467-1.2521-1.89-3.5666-4.799-3.5666-2.888 0-5.287 2.271-5.287 5.6057 0 3.1423 2.378 5.6057 5.562 5.6057 2.57 0 4.057-1.5711 4.673-2.4845l-1.911-1.2746c-.637.9345-1.508 1.5501-2.762 1.5501-1.252 0-2.144-.5734-2.718-1.6977l7.496-3.1001zm-59.7192-1.8466v2.3778h5.6901c-.17 1.3379-.6155 2.3146-1.2943 2.9947-.8291.8277-2.1248 1.7398-4.3958 1.7398-3.5034 0-6.2437-2.8233-6.2437-6.3267 0-3.5047 2.7403-6.328 6.2437-6.328 1.8901 0 3.2701.7433 4.289 1.6989l1.6779-1.6779c-1.4235-1.3589-3.3123-2.4002-5.9669-2.4002-4.7991 0-8.8337 3.9081-8.8337 8.7072s4.0346 8.7058 8.8337 8.7058c2.59 0 4.5434-.8488 6.0723-2.4423 1.5712-1.5712 2.0602-3.7789 2.0602-5.5636 0-.5523-.0422-1.0611-.1279-1.4855zm14.6029 7.2824c-1.699 0-3.1647-1.4011-3.1647-3.3967 0-2.018 1.4657-3.398 3.1647-3.398 1.6976 0 3.1633 1.38 3.1633 3.398 0 1.9956-1.4657 3.3967-3.1633 3.3967zm0-9.0024c-3.1014 0-5.6282 2.3567-5.6282 5.6057 0 3.2266 2.5268 5.6057 5.6282 5.6057 3.1001 0 5.6268-2.3791 5.6268-5.6057 0-3.249-2.5267-5.6057-5.6268-5.6057zm12.2751 9.0024c-1.6989 0-3.1646-1.4011-3.1646-3.3967 0-2.018 1.4657-3.398 3.1646-3.398 1.6992 0 3.1632 1.38 3.1632 3.398 0 1.9956-1.464 3.3967-3.1632 3.3967zm0-9.0024c-3.1001 0-5.6268 2.3567-5.6268 5.6057 0 3.2266 2.5267 5.6057 5.6268 5.6057 3.1002 0 5.6272-2.3791 5.6272-5.6057 0-3.249-2.527-5.6057-5.6272-5.6057z" fill-rule="evenodd"/>
    <path d="m70.8777 24.1667c-.2857.4093-.6854.7163-1.199.921-.5097.2008-1.1044.3012-1.784.3012-.6874 0-1.2975-.1603-1.8304-.4808-.5329-.3243-.946-.7839-1.2395-1.3785-.2896-.5947-.4383-1.284-.446-2.0679v-.7356c0-1.2704.2954-2.2551.8862-2.9541.5947-.6989 1.4288-1.0484 2.5023-1.0484.8804 0 1.589.2259 2.1257.6777.5368.448.865 1.0851.9847 1.9115h-1.1121c-.2085-1.116-.8727-1.674-1.9925-1.674-.7453 0-1.311.2626-1.6972.7878-.3823.5213-.5753 1.2781-.5792 2.2705v.6893c0 .9461.2162 1.6991.6487 2.259.4325.5561 1.0175.8341 1.7551.8341.417 0 .7819-.0463 1.0947-.139s.5715-.2491.7762-.4692v-1.8941h-1.952v-.9036h3.0583z"/>
    <path d="m77.1482 21.3748h-3.6549v2.9889h4.2457v.9094h-5.3578v-8.4336h5.2999v.9152h-4.1878v2.7108h3.6549z"/>
    <path d="m84.7104 17.7547h-2.7108v7.5184h-1.1063v-7.5184h-2.705v-.9152h6.5221z"/>
    <path d="m89.1538 25.2731h-1.1121v-8.4336h1.1121z"/>
    <path d="m96.4901 17.7547h-2.7108v7.5184h-1.1063v-7.5184h-2.705v-.9152h6.5221z"/>
    <path d="m106.228 21.3285c0 .8264-.139 1.5485-.417 2.1663-.278.614-.672 1.0832-1.182 1.4075-.51.3244-1.104.4866-1.784.4866-.664 0-1.253-.1622-1.767-.4866-.513-.3282-.913-.7935-1.1987-1.3959-.2819-.6063-.4267-1.3071-.4345-2.1026v-.6082c0-.8109.141-1.5272.4229-2.1489.2823-.6217.6793-1.0967 1.1933-1.4249.517-.3321 1.108-.4982 1.772-.4982.676 0 1.271.1641 1.784.4924.518.3243.916.7974 1.194 1.4191.278.6178.417 1.338.417 2.1605zm-1.107-.5445c0-1.0001-.201-1.7666-.602-2.2995-.402-.5368-.964-.8051-1.686-.8051-.702 0-1.257.2683-1.662.8051-.402.5329-.608 1.2743-.62 2.2242v.6198c0 .9692.203 1.7319.608 2.288.41.5522.972.8283 1.686.8283.718 0 1.274-.2607 1.668-.782.394-.5252.597-1.2762.608-2.2532z"/>
    <path d="m114.021 25.2731h-1.117l-4.246-6.499v6.499h-1.118v-8.4336h1.118l4.257 6.5279v-6.5279h1.106z"/>
  </g>
</svg>